<svg width="58" height="58" viewBox="0 0 58 58" fill="none" xmlns="http://www.w3.org/2000/svg">
<path d="M8.37045 28.2044C8.37439 27.9718 8.47059 27.7502 8.63789 27.5885C8.80518 27.4268 9.02987 27.3382 9.26252 27.3421L45.7414 27.96L31.6915 13.4259C31.5296 13.2585 31.441 13.0337 31.4449 12.8009C31.4488 12.5682 31.5451 12.3465 31.7125 12.1847C31.8799 12.0229 32.1047 11.9342 32.3375 11.9381C32.5702 11.9421 32.7919 12.0383 32.9537 12.2057L48.4761 28.2629C48.5563 28.3458 48.6193 28.4436 48.6617 28.5509C48.704 28.6581 48.7248 28.7726 48.7229 28.8879C48.7209 29.0032 48.6963 29.117 48.6503 29.2227C48.6044 29.3285 48.538 29.4241 48.4551 29.5042L32.3978 45.0265C32.3149 45.1067 32.2171 45.1697 32.1099 45.212C32.0026 45.2543 31.8881 45.2751 31.7728 45.2731C31.6576 45.2712 31.5438 45.2465 31.4381 45.2006C31.3324 45.1547 31.2367 45.0884 31.1566 45.0055C31.0765 44.9226 31.0134 44.8248 30.9711 44.7176C30.9288 44.6103 30.9081 44.4958 30.91 44.3805C30.912 44.2653 30.9366 44.1515 30.9825 44.0458C31.0284 43.9401 31.0947 43.8444 31.1776 43.7643L45.7116 29.7144L9.2328 29.0965C9.00015 29.0926 8.7786 28.9964 8.61687 28.8291C8.45515 28.6618 8.36651 28.4371 8.37045 28.2044Z" fill="white"/>
</svg>
